<svg xmlns="http://www.w3.org/2000/svg" viewBox="0 0 600 1200">
  <defs>
    <style>
      .cls-1 {
        isolation: isolate;
      }

      .cls-2 {
        fill: none;
        fill-rule: evenodd;
      }
    </style>
  </defs>
  <g id="plastic_path" data-name="plastic path" class="cls-1">
    <path class="cls-2" d="M246,434c-2.9-1.1-3.3-7.5-3-14,1-22,9.1-57.5,11-66,3.4-15.4,4.3-25.7,11-40,9.2-19.7,17.4-28.2,25-28s15.2,9.8,24,30c5.2,11.9,7.6,21.6,11,34,1.4,4.9,12.5,44.7,14,68,.4,6.7,0,12.7-3,14-1.4.6-3.1.1-5-1-13.4-1.2-26.4-1.9-39-2-19.3-.1-36.9.6-42,4C249.5,433.3,247.6,434.6,246,434Z"/>
    <path class="cls-2" d="M225,787l21,1c17.6.9,37.5,2.1,51,2a443,443,0,0,0,49-3l21-1a180,180,0,0,1-1,22c-1.9,18.4-7.2,39.1-18,63a207.4,207.4,0,0,1-17,31,197.8,197.8,0,0,1-26,31,56,56,0,0,0,4,21c6,15.1,18.1,25.8,30,32,6.8,3.5,24.1,7.6,42,9,11.2.8,23.1,1.1,32,10a30.7,30.7,0,0,1,9,23c-.4,8.1-4.5,15.8-11,22-12,11.4-28.4,11.8-34,12-25.1.9-52.9,5.7-82,6-21.7.2-39.3-2.6-61-2-7.3.2-28.1,1-45-12-10.7-8.3-16-17.1-16-26,0-6.6,2.8-12.9,7-18,8.5-10.3,21.3-13,38-15,15-1.8,27-2.2,37-7,12.3-5.9,24.8-17.1,31-33a61.2,61.2,0,0,0,4-22,194.8,194.8,0,0,1-17-17,192.6,192.6,0,0,1-32-51,197,197,0,0,1-14.9-57.6A199.2,199.2,0,0,1,225,787Z"/>
  </g>
  <g id="water_path" data-name="water path" class="cls-1">
    <path class="cls-2" d="M247,435a116.9,116.9,0,0,1,12-3c12.2-2.4,21.6-1.4,34-2,10.6-.5,17.7-1.7,28,0a87.4,87.4,0,0,1,15,4c2.4,21.4,5,42.4,8,64,4.1,29.2,9.3,65.2,13,85,4.5,23.9,8.2,46.1,10,72,1.2,16.6,1.4,38.2,1,59-.5,24-1.8,47.7-4,72-7.3,1.2-14.6,2.2-22,3-11.3,1.2-25.9,1.8-40,2-16.2.2-32-.1-48-1-9.1-.5-18-1.2-27-2-3.1-22.9-5.1-45.8-6-69-.7-17.5-.6-36,0-55C223,604.2,234.9,510.5,247,435Z"/>
  </g>
  <g id="bobbelpath" class="cls-1">
    <path class="cls-2" d="M233,787l14-23c8.6-14.3,22.3-36.5,34-39,1.1-.2,5.1-.9,7-4a6.6,6.6,0,0,0,1-4c-.3-3.3-3.1-5-5-7-6.6-6.8-7-21.6,0-32a28.3,28.3,0,0,1,28-12c13.9,2.5,20.9,15.1,23,23,3.1,11.8-2.7,21.1-2,32s4.6,16.8,9,25c5.7,10.6,12.9,26.1,19,40a584.8,584.8,0,0,1-62,4A605,605,0,0,1,233,787Z"/>
    <path class="cls-2" d="M275,504c23.7-6.3,42.7,6.3,51,14a45.4,45.4,0,0,1,11,15c5.5,12.9,4.8,30-5,43-5.2,6.9-14,13.9-31,17-11.3,2.1-31.9,2.4-48-12-8.3-7.4-12.3-15.1-14-22-3.9-16.1,3.9-30.2,9-37A50,50,0,0,1,275,504Z"/>
  </g>
</svg>
