<svg xmlns="http://www.w3.org/2000/svg" viewBox="0 0 265 840">
  <defs>
    <style>
      .cls-1 {
        isolation: isolate;
      }

      .cls-2 {
        fill: none;
        fill-rule: evenodd;
      }
    </style>
  </defs>
  <g id="Layer_6" data-name="Layer 6" class="cls-1">
    <path class="cls-2" d="M81,197a140.8,140.8,0,0,0,32,7c13.8,1.4,25.9.8,35-1a100.1,100.1,0,0,0,20-6,43.3,43.3,0,0,0,14-22,42.6,42.6,0,0,0-1-25c-1.3-3.7-4.6-9.5-9-15-3-3.7-5.2-5.7-7-10s-2.7-11.3-1-19c4.4-20.1,24.4-36.7,22-40-1-1.4-5.4,0-8,1-8,3.1-14.1,8.8-22,19-2.3,3-4.7,5-7,8s-4.8,6.5-7,6-2.7-4.1-3-6c-1.4-8.3-3.6-23.8-4-30-.6-9.8-2.8-22.8-6-23-.8,0-1.8.9-3,3a18.9,18.9,0,0,0-2,10c.4,4.9-1.5,9.2-2,15s-3.7,20.2-4,22-1.4,7.7-5,9c-1.4.5-3.3.5-6-1a17.4,17.4,0,0,1-6-6c-.7-1-5.5-5.6-9-9S72.6,65.8,70,68c-.6.5-.4,1.8,0,3,2.9,9.9,12.3,18.3,16,27s3.8,21.4-1,30c-3,5.4-6.5,6.9-10,12a42.1,42.1,0,0,0-7,17,44.1,44.1,0,0,0,1,18A50.1,50.1,0,0,0,81,197Z"/>
  </g>
</svg>
