<svg xmlns="http://www.w3.org/2000/svg" viewBox="0 0 265 840">
  <defs>
    <style>
      .cls-1 {
        isolation: isolate;
      }

      .cls-2 {
        fill: none;
        fill-rule: evenodd;
      }
    </style>
  </defs>
  <g id="floatfod_path" class="cls-1">
    <path class="cls-2" d="M53,544a7.5,7.5,0,0,0-3,2,8.3,8.3,0,0,0-2,5c-.7,6.5-1.4,22.9,0,29,1.9,8.8,3.4,21.6,7,33a179.5,179.5,0,0,0,19,41c8,12.8,19.6,27.4,37,39,9.3,6.2,16.5,8.8,24,8s18.4-9.5,31-24c3.8-4.3,7.4-6.5,11-11,2-2.5,4.5-5.9,9-7,6.6-1.6,13.5,3,17,7,5.3,6,5.5,13.3,5,26-.7,17-2.1,26.4-9,33a28.4,28.4,0,0,1-10,6,34.3,34.3,0,0,1-16,1c-3-.5-21-2.6-32-4-7.3-.9-23.8.1-38,1-12.7.8-24.8,2.1-36,11-4.4,3.5-16.8,14.8-14,25,2,7.3,14.6,12.2,38,16,18.7,3,38.5,4.5,50,4a320,320,0,0,0,47-6c14.8-2.9,29.4-6.6,44-11a215.9,215.9,0,0,0-1-35,217.7,217.7,0,0,0-6-32c-7.9-30.4-17.5-65.8-19-83-.5-6-2.4-12-2-15,.1-.8.5-3.5-1-5a4.2,4.2,0,0,0-2-1,171.2,171.2,0,0,1,3-21c1.8-8.6,1.5-19.6,2-24a9.9,9.9,0,0,0-1-6,8.6,8.6,0,0,0-3-3,211.9,211.9,0,0,1-149,1Z"/>
  </g>
</svg>
