<svg xmlns="http://www.w3.org/2000/svg" viewBox="0 0 265 840">
  <defs>
    <style>
      .cls-1 {
        isolation: isolate;
      }

      .cls-2 {
        fill: none;
        fill-rule: evenodd;
      }
    </style>
  </defs>
  <g id="floatfod_path" class="cls-1">
    <path class="cls-2" d="M70,595c-2.9,1.2-4.3,4.9-5,9-2.3,12.7.6,29,1,31,1.9,8.4,2.7,15.7,5,24a184.4,184.4,0,0,0,7,21c8.3,20.3,19.8,37.4,34,51s31,20.4,37,20,18.8-8.1,32-21c3.3-3.2,10.3-10.1,11-11,2.4-3.3,4.9-7.4,10-9s10.2.3,13,2,6.8,6.7,9,15,2.2,18.6,0,32c-.9,5.1-2,10.1-6,15a26.8,26.8,0,0,1-15,9,32.2,32.2,0,0,1-11,0c-4.6-.9-16.8-1.8-26-3-5.9-.8-18.5-1-29-1-22.9,0-36.9,2-49,10-4.9,3.2-20.4,14.6-18,25,1.6,6.8,10.4,10.6,23,14,19.8,5.4,42.9,8,52,8a295.4,295.4,0,0,0,44-3c9.9-1.5,21.5-4.3,33-7l26-6a224.6,224.6,0,0,0-1-41c-1.5-12.7-5.9-31.2-11-49-3-10.4-5.8-19.3-8-30-1.7-8.1-3-16.5-4-25s-3-16.3-3-20a14,14,0,0,0-1-5,12.1,12.1,0,0,0-2-3,245.3,245.3,0,0,0,5-27c.6-5-.1-8.9,0-14,.1-3.4.2-9.4-3-11a6.5,6.5,0,0,0-4,0,13.5,13.5,0,0,0-5,3c-1.3,1.1-6.4,3-12,4a374,374,0,0,1-56,6c-22.1.6-38.7.7-51-5-4.3-2-8.1-2.8-12-5S73.2,593.7,70,595Z"/>
  </g>
</svg>
