<svg xmlns="http://www.w3.org/2000/svg" viewBox="0 0 265 840">
  <defs>
    <style>
      .cls-1 {
        isolation: isolate;
      }

      .cls-2 {
        fill: none;
        fill-rule: evenodd;
      }
    </style>
  </defs>
  <g id="Shape_1" data-name="Shape 1" class="cls-1">
    <path class="cls-2" d="M72,191c-1.6-2.7-2-5.5-2-9a71.9,71.9,0,0,1,2-16c3.3-10.1,15.9-53.2,24-80a40.4,40.4,0,0,1,13-9c3.8-1.7,11.9-3.5,21-3a66.8,66.8,0,0,1,28,8c6.2,24.6,20.4,80.8,22,91a20.6,20.6,0,0,1,0,7,22.3,22.3,0,0,1-3,8c-1.8,3-4.8,6.1-10,9a46.9,46.9,0,0,1-16,5c-9.3,1.2-17.9,3-26,3s-19.7-2.3-31-4C85.3,199.7,76.1,198.2,72,191Z"/>
  </g>
</svg>
